solid Insertionsface
   facet normal 0.000000e+00 0.000000e+00 1.000000e+00
      outer loop
         vertex 7.250000e+02 8.878689e-14 4.462628e+03
         vertex 7.212803e+02 7.334703e+01 4.462628e+03
         vertex 0.000000e+00 0.000000e+00 4.462628e+03
      endloop
   endfacet
   facet normal 0.000000e+00 0.000000e+00 1.000000e+00
      outer loop
         vertex 7.250000e+02 8.878689e-14 4.462628e+03
         vertex 0.000000e+00 0.000000e+00 4.462628e+03
         vertex 7.212803e+02 -7.334703e+01 4.462628e+03
      endloop
   endfacet
   facet normal 0.000000e+00 -0.000000e+00 1.000000e+00
      outer loop
         vertex 6.662444e+02 -2.859080e+02 4.462628e+03
         vertex 6.917509e+02 -2.170383e+02 4.462628e+03
         vertex 0.000000e+00 0.000000e+00 4.462628e+03
      endloop
   endfacet
   facet normal 0.000000e+00 0.000000e+00 1.000000e+00
      outer loop
         vertex 0.000000e+00 0.000000e+00 4.462628e+03
         vertex 6.917509e+02 -2.170383e+02 4.462628e+03
         vertex 7.101592e+02 -1.459414e+02 4.462628e+03
      endloop
   endfacet
   facet normal 0.000000e+00 0.000000e+00 1.000000e+00
      outer loop
         vertex 0.000000e+00 0.000000e+00 4.462628e+03
         vertex 7.101592e+02 -1.459414e+02 4.462628e+03
         vertex 7.212803e+02 -7.334703e+01 4.462628e+03
      endloop
   endfacet
   facet normal 0.000000e+00 -0.000000e+00 1.000000e+00
      outer loop
         vertex 5.500996e+02 -4.722450e+02 4.462628e+03
         vertex 5.950535e+02 -4.141695e+02 4.462628e+03
         vertex 0.000000e+00 0.000000e+00 4.462628e+03
      endloop
   endfacet
   facet normal 0.000000e+00 0.000000e+00 1.000000e+00
      outer loop
         vertex 0.000000e+00 0.000000e+00 4.462628e+03
         vertex 5.950535e+02 -4.141695e+02 4.462628e+03
         vertex 6.339013e+02 -3.518439e+02 4.462628e+03
      endloop
   endfacet
   facet normal 0.000000e+00 0.000000e+00 1.000000e+00
      outer loop
         vertex 0.000000e+00 0.000000e+00 4.462628e+03
         vertex 6.339013e+02 -3.518439e+02 4.462628e+03
         vertex 6.662444e+02 -2.859080e+02 4.462628e+03
      endloop
   endfacet
   facet normal 0.000000e+00 -0.000000e+00 1.000000e+00
      outer loop
         vertex 3.834989e+02 -6.152671e+02 4.462628e+03
         vertex 4.437768e+02 -5.733124e+02 4.462628e+03
         vertex 0.000000e+00 0.000000e+00 4.462628e+03
      endloop
   endfacet
   facet normal 0.000000e+00 0.000000e+00 1.000000e+00
      outer loop
         vertex 0.000000e+00 0.000000e+00 4.462628e+03
         vertex 4.437768e+02 -5.733124e+02 4.462628e+03
         vertex 4.995010e+02 -5.254748e+02 4.462628e+03
      endloop
   endfacet
   facet normal 0.000000e+00 0.000000e+00 1.000000e+00
      outer loop
         vertex 0.000000e+00 0.000000e+00 4.462628e+03
         vertex 4.995010e+02 -5.254748e+02 4.462628e+03
         vertex 5.500996e+02 -4.722450e+02 4.462628e+03
      endloop
   endfacet
   facet normal 0.000000e+00 -0.000000e+00 1.000000e+00
      outer loop
         vertex 1.817231e+02 -7.018559e+02 4.462628e+03
         vertex 2.517963e+02 -6.798703e+02 4.462628e+03
         vertex 0.000000e+00 0.000000e+00 4.462628e+03
      endloop
   endfacet
   facet normal 0.000000e+00 0.000000e+00 1.000000e+00
      outer loop
         vertex 0.000000e+00 0.000000e+00 4.462628e+03
         vertex 2.517963e+02 -6.798703e+02 4.462628e+03
         vertex 3.192858e+02 -6.509083e+02 4.462628e+03
      endloop
   endfacet
   facet normal 0.000000e+00 0.000000e+00 1.000000e+00
      outer loop
         vertex 0.000000e+00 0.000000e+00 4.462628e+03
         vertex 3.192858e+02 -6.509083e+02 4.462628e+03
         vertex 3.834989e+02 -6.152671e+02 4.462628e+03
      endloop
   endfacet
   facet normal 0.000000e+00 0.000000e+00 1.000000e+00
      outer loop
         vertex -3.672065e+01 -7.240695e+02 4.462628e+03
         vertex 3.672065e+01 -7.240695e+02 4.462628e+03
         vertex 0.000000e+00 0.000000e+00 4.462628e+03
      endloop
   endfacet
   facet normal 0.000000e+00 0.000000e+00 1.000000e+00
      outer loop
         vertex 0.000000e+00 0.000000e+00 4.462628e+03
         vertex 3.672065e+01 -7.240695e+02 4.462628e+03
         vertex 1.097851e+02 -7.166395e+02 4.462628e+03
      endloop
   endfacet
   facet normal 0.000000e+00 0.000000e+00 1.000000e+00
      outer loop
         vertex 0.000000e+00 0.000000e+00 4.462628e+03
         vertex 1.097851e+02 -7.166395e+02 4.462628e+03
         vertex 1.817231e+02 -7.018559e+02 4.462628e+03
      endloop
   endfacet
   facet normal -0.000000e+00 0.000000e+00 1.000000e+00
      outer loop
         vertex -2.517963e+02 -6.798703e+02 4.462628e+03
         vertex -1.817231e+02 -7.018559e+02 4.462628e+03
         vertex 0.000000e+00 0.000000e+00 4.462628e+03
      endloop
   endfacet
   facet normal 0.000000e+00 0.000000e+00 1.000000e+00
      outer loop
         vertex 0.000000e+00 0.000000e+00 4.462628e+03
         vertex -1.817231e+02 -7.018559e+02 4.462628e+03
         vertex -1.097851e+02 -7.166395e+02 4.462628e+03
      endloop
   endfacet
   facet normal 0.000000e+00 0.000000e+00 1.000000e+00
      outer loop
         vertex 0.000000e+00 0.000000e+00 4.462628e+03
         vertex -1.097851e+02 -7.166395e+02 4.462628e+03
         vertex -3.672065e+01 -7.240695e+02 4.462628e+03
      endloop
   endfacet
   facet normal -0.000000e+00 0.000000e+00 1.000000e+00
      outer loop
         vertex -4.437768e+02 -5.733124e+02 4.462628e+03
         vertex -3.834989e+02 -6.152671e+02 4.462628e+03
         vertex 0.000000e+00 0.000000e+00 4.462628e+03
      endloop
   endfacet
   facet normal 0.000000e+00 0.000000e+00 1.000000e+00
      outer loop
         vertex 0.000000e+00 0.000000e+00 4.462628e+03
         vertex -3.834989e+02 -6.152671e+02 4.462628e+03
         vertex -3.192858e+02 -6.509083e+02 4.462628e+03
      endloop
   endfacet
   facet normal 0.000000e+00 0.000000e+00 1.000000e+00
      outer loop
         vertex 0.000000e+00 0.000000e+00 4.462628e+03
         vertex -3.192858e+02 -6.509083e+02 4.462628e+03
         vertex -2.517963e+02 -6.798703e+02 4.462628e+03
      endloop
   endfacet
   facet normal -0.000000e+00 0.000000e+00 1.000000e+00
      outer loop
         vertex -5.950535e+02 -4.141695e+02 4.462628e+03
         vertex -5.500996e+02 -4.722450e+02 4.462628e+03
         vertex 0.000000e+00 0.000000e+00 4.462628e+03
      endloop
   endfacet
   facet normal 0.000000e+00 0.000000e+00 1.000000e+00
      outer loop
         vertex 0.000000e+00 0.000000e+00 4.462628e+03
         vertex -5.500996e+02 -4.722450e+02 4.462628e+03
         vertex -4.995010e+02 -5.254748e+02 4.462628e+03
      endloop
   endfacet
   facet normal 0.000000e+00 0.000000e+00 1.000000e+00
      outer loop
         vertex 0.000000e+00 0.000000e+00 4.462628e+03
         vertex -4.995010e+02 -5.254748e+02 4.462628e+03
         vertex -4.437768e+02 -5.733124e+02 4.462628e+03
      endloop
   endfacet
   facet normal -0.000000e+00 0.000000e+00 1.000000e+00
      outer loop
         vertex -6.917509e+02 -2.170383e+02 4.462628e+03
         vertex -6.662444e+02 -2.859080e+02 4.462628e+03
         vertex 0.000000e+00 0.000000e+00 4.462628e+03
      endloop
   endfacet
   facet normal 0.000000e+00 0.000000e+00 1.000000e+00
      outer loop
         vertex 0.000000e+00 0.000000e+00 4.462628e+03
         vertex -6.662444e+02 -2.859080e+02 4.462628e+03
         vertex -6.339013e+02 -3.518439e+02 4.462628e+03
      endloop
   endfacet
   facet normal 0.000000e+00 0.000000e+00 1.000000e+00
      outer loop
         vertex 0.000000e+00 0.000000e+00 4.462628e+03
         vertex -6.339013e+02 -3.518439e+02 4.462628e+03
         vertex -5.950535e+02 -4.141695e+02 4.462628e+03
      endloop
   endfacet
   facet normal -0.000000e+00 0.000000e+00 1.000000e+00
      outer loop
         vertex -7.250000e+02 0.000000e+00 4.462628e+03
         vertex -7.212803e+02 -7.334703e+01 4.462628e+03
         vertex 0.000000e+00 0.000000e+00 4.462628e+03
      endloop
   endfacet
   facet normal 0.000000e+00 0.000000e+00 1.000000e+00
      outer loop
         vertex 0.000000e+00 0.000000e+00 4.462628e+03
         vertex -7.212803e+02 -7.334703e+01 4.462628e+03
         vertex -7.101592e+02 -1.459414e+02 4.462628e+03
      endloop
   endfacet
   facet normal 0.000000e+00 0.000000e+00 1.000000e+00
      outer loop
         vertex 0.000000e+00 0.000000e+00 4.462628e+03
         vertex -7.101592e+02 -1.459414e+02 4.462628e+03
         vertex -6.917509e+02 -2.170383e+02 4.462628e+03
      endloop
   endfacet
   facet normal 0.000000e+00 0.000000e+00 1.000000e+00
      outer loop
         vertex -6.917509e+02 2.170383e+02 4.462628e+03
         vertex -7.101592e+02 1.459414e+02 4.462628e+03
         vertex 0.000000e+00 0.000000e+00 4.462628e+03
      endloop
   endfacet
   facet normal 0.000000e+00 0.000000e+00 1.000000e+00
      outer loop
         vertex 0.000000e+00 0.000000e+00 4.462628e+03
         vertex -7.101592e+02 1.459414e+02 4.462628e+03
         vertex -7.212803e+02 7.334703e+01 4.462628e+03
      endloop
   endfacet
   facet normal 0.000000e+00 0.000000e+00 1.000000e+00
      outer loop
         vertex 0.000000e+00 0.000000e+00 4.462628e+03
         vertex -7.212803e+02 7.334703e+01 4.462628e+03
         vertex -7.250000e+02 0.000000e+00 4.462628e+03
      endloop
   endfacet
   facet normal 0.000000e+00 0.000000e+00 1.000000e+00
      outer loop
         vertex -5.950535e+02 4.141695e+02 4.462628e+03
         vertex -6.339013e+02 3.518439e+02 4.462628e+03
         vertex 0.000000e+00 0.000000e+00 4.462628e+03
      endloop
   endfacet
   facet normal 0.000000e+00 0.000000e+00 1.000000e+00
      outer loop
         vertex 0.000000e+00 0.000000e+00 4.462628e+03
         vertex -6.339013e+02 3.518439e+02 4.462628e+03
         vertex -6.662444e+02 2.859080e+02 4.462628e+03
      endloop
   endfacet
   facet normal 0.000000e+00 0.000000e+00 1.000000e+00
      outer loop
         vertex 0.000000e+00 0.000000e+00 4.462628e+03
         vertex -6.662444e+02 2.859080e+02 4.462628e+03
         vertex -6.917509e+02 2.170383e+02 4.462628e+03
      endloop
   endfacet
   facet normal 0.000000e+00 0.000000e+00 1.000000e+00
      outer loop
         vertex -4.437768e+02 5.733124e+02 4.462628e+03
         vertex -4.995010e+02 5.254748e+02 4.462628e+03
         vertex 0.000000e+00 0.000000e+00 4.462628e+03
      endloop
   endfacet
   facet normal 0.000000e+00 0.000000e+00 1.000000e+00
      outer loop
         vertex 0.000000e+00 0.000000e+00 4.462628e+03
         vertex -4.995010e+02 5.254748e+02 4.462628e+03
         vertex -5.500996e+02 4.722450e+02 4.462628e+03
      endloop
   endfacet
   facet normal 0.000000e+00 0.000000e+00 1.000000e+00
      outer loop
         vertex 0.000000e+00 0.000000e+00 4.462628e+03
         vertex -5.500996e+02 4.722450e+02 4.462628e+03
         vertex -5.950535e+02 4.141695e+02 4.462628e+03
      endloop
   endfacet
   facet normal 0.000000e+00 0.000000e+00 1.000000e+00
      outer loop
         vertex -2.517963e+02 6.798703e+02 4.462628e+03
         vertex -3.192858e+02 6.509083e+02 4.462628e+03
         vertex 0.000000e+00 0.000000e+00 4.462628e+03
      endloop
   endfacet
   facet normal 0.000000e+00 0.000000e+00 1.000000e+00
      outer loop
         vertex 0.000000e+00 0.000000e+00 4.462628e+03
         vertex -3.192858e+02 6.509083e+02 4.462628e+03
         vertex -3.834989e+02 6.152671e+02 4.462628e+03
      endloop
   endfacet
   facet normal 0.000000e+00 0.000000e+00 1.000000e+00
      outer loop
         vertex 0.000000e+00 0.000000e+00 4.462628e+03
         vertex -3.834989e+02 6.152671e+02 4.462628e+03
         vertex -4.437768e+02 5.733124e+02 4.462628e+03
      endloop
   endfacet
   facet normal 0.000000e+00 0.000000e+00 1.000000e+00
      outer loop
         vertex -3.672065e+01 7.240695e+02 4.462628e+03
         vertex -1.097851e+02 7.166395e+02 4.462628e+03
         vertex 0.000000e+00 0.000000e+00 4.462628e+03
      endloop
   endfacet
   facet normal 0.000000e+00 0.000000e+00 1.000000e+00
      outer loop
         vertex 0.000000e+00 0.000000e+00 4.462628e+03
         vertex -1.097851e+02 7.166395e+02 4.462628e+03
         vertex -1.817231e+02 7.018559e+02 4.462628e+03
      endloop
   endfacet
   facet normal 0.000000e+00 0.000000e+00 1.000000e+00
      outer loop
         vertex 0.000000e+00 0.000000e+00 4.462628e+03
         vertex -1.817231e+02 7.018559e+02 4.462628e+03
         vertex -2.517963e+02 6.798703e+02 4.462628e+03
      endloop
   endfacet
   facet normal 0.000000e+00 0.000000e+00 1.000000e+00
      outer loop
         vertex 1.817231e+02 7.018559e+02 4.462628e+03
         vertex 1.097851e+02 7.166395e+02 4.462628e+03
         vertex 0.000000e+00 0.000000e+00 4.462628e+03
      endloop
   endfacet
   facet normal 0.000000e+00 0.000000e+00 1.000000e+00
      outer loop
         vertex 0.000000e+00 0.000000e+00 4.462628e+03
         vertex 1.097851e+02 7.166395e+02 4.462628e+03
         vertex 3.672065e+01 7.240695e+02 4.462628e+03
      endloop
   endfacet
   facet normal 0.000000e+00 -0.000000e+00 1.000000e+00
      outer loop
         vertex 0.000000e+00 0.000000e+00 4.462628e+03
         vertex 3.672065e+01 7.240695e+02 4.462628e+03
         vertex -3.672065e+01 7.240695e+02 4.462628e+03
      endloop
   endfacet
   facet normal 0.000000e+00 0.000000e+00 1.000000e+00
      outer loop
         vertex 3.834989e+02 6.152671e+02 4.462628e+03
         vertex 3.192858e+02 6.509083e+02 4.462628e+03
         vertex 0.000000e+00 0.000000e+00 4.462628e+03
      endloop
   endfacet
   facet normal 0.000000e+00 0.000000e+00 1.000000e+00
      outer loop
         vertex 0.000000e+00 0.000000e+00 4.462628e+03
         vertex 3.192858e+02 6.509083e+02 4.462628e+03
         vertex 2.517963e+02 6.798703e+02 4.462628e+03
      endloop
   endfacet
   facet normal 0.000000e+00 0.000000e+00 1.000000e+00
      outer loop
         vertex 0.000000e+00 0.000000e+00 4.462628e+03
         vertex 2.517963e+02 6.798703e+02 4.462628e+03
         vertex 1.817231e+02 7.018559e+02 4.462628e+03
      endloop
   endfacet
   facet normal 0.000000e+00 0.000000e+00 1.000000e+00
      outer loop
         vertex 5.500996e+02 4.722450e+02 4.462628e+03
         vertex 4.995010e+02 5.254748e+02 4.462628e+03
         vertex 0.000000e+00 0.000000e+00 4.462628e+03
      endloop
   endfacet
   facet normal 0.000000e+00 0.000000e+00 1.000000e+00
      outer loop
         vertex 0.000000e+00 0.000000e+00 4.462628e+03
         vertex 4.995010e+02 5.254748e+02 4.462628e+03
         vertex 4.437768e+02 5.733124e+02 4.462628e+03
      endloop
   endfacet
   facet normal 0.000000e+00 0.000000e+00 1.000000e+00
      outer loop
         vertex 0.000000e+00 0.000000e+00 4.462628e+03
         vertex 4.437768e+02 5.733124e+02 4.462628e+03
         vertex 3.834989e+02 6.152671e+02 4.462628e+03
      endloop
   endfacet
   facet normal 0.000000e+00 0.000000e+00 1.000000e+00
      outer loop
         vertex 6.662444e+02 2.859080e+02 4.462628e+03
         vertex 6.339013e+02 3.518439e+02 4.462628e+03
         vertex 0.000000e+00 0.000000e+00 4.462628e+03
      endloop
   endfacet
   facet normal 0.000000e+00 0.000000e+00 1.000000e+00
      outer loop
         vertex 0.000000e+00 0.000000e+00 4.462628e+03
         vertex 6.339013e+02 3.518439e+02 4.462628e+03
         vertex 5.950535e+02 4.141695e+02 4.462628e+03
      endloop
   endfacet
   facet normal 0.000000e+00 0.000000e+00 1.000000e+00
      outer loop
         vertex 0.000000e+00 0.000000e+00 4.462628e+03
         vertex 5.950535e+02 4.141695e+02 4.462628e+03
         vertex 5.500996e+02 4.722450e+02 4.462628e+03
      endloop
   endfacet
   facet normal 0.000000e+00 0.000000e+00 1.000000e+00
      outer loop
         vertex 7.212803e+02 7.334703e+01 4.462628e+03
         vertex 7.101592e+02 1.459414e+02 4.462628e+03
         vertex 0.000000e+00 0.000000e+00 4.462628e+03
      endloop
   endfacet
   facet normal 0.000000e+00 0.000000e+00 1.000000e+00
      outer loop
         vertex 0.000000e+00 0.000000e+00 4.462628e+03
         vertex 7.101592e+02 1.459414e+02 4.462628e+03
         vertex 6.917509e+02 2.170383e+02 4.462628e+03
      endloop
   endfacet
   facet normal 0.000000e+00 0.000000e+00 1.000000e+00
      outer loop
         vertex 0.000000e+00 0.000000e+00 4.462628e+03
         vertex 6.917509e+02 2.170383e+02 4.462628e+03
         vertex 6.662444e+02 2.859080e+02 4.462628e+03
      endloop
   endfacet
endsolid